<svg width="873" height="873" viewBox="0 0 873 873" fill="none" xmlns="http://www.w3.org/2000/svg">
<circle cx="436.5" cy="436.5" r="436.5" fill="#FF0000"/>
<path d="M333.116 73.2109L333.113 73.2122C332.938 73.2791 332.564 73.4866 331.959 73.8907C331.379 74.2787 330.648 74.805 329.785 75.4547C328.061 76.7532 325.841 78.5204 323.298 80.6058C318.213 84.775 311.864 90.1937 305.657 95.6274C299.45 101.061 293.392 106.503 288.89 110.719C286.637 112.828 284.782 114.622 283.495 115.951C282.849 116.618 282.36 117.153 282.038 117.545C282.03 117.554 282.023 117.563 282.015 117.572C282.339 117.787 282.793 118.062 283.375 118.395C284.734 119.17 286.712 120.212 289.166 121.452C294.069 123.929 300.826 127.173 308.222 130.61C342.084 146.291 356.539 154.48 373.54 167.41L373.544 167.413C394.415 183.45 406.772 198.999 421.208 229.179L421.213 229.19C422.654 232.296 423.7 237.008 424.391 242.479C425.084 247.975 425.429 254.324 425.429 260.758C425.429 273.586 424.057 286.919 421.244 294.545L421.241 294.553C409.353 326.011 396.179 347.765 372.009 376.503L371.997 376.517L371.985 376.53C370.099 378.612 368.104 381.016 366.307 383.212C365.88 383.735 365.463 384.247 365.06 384.741C363.792 386.298 362.674 387.67 361.861 388.602C354.634 397.691 345.289 408.048 319.082 433.893C299.656 453.61 290.372 464.159 273.476 485.025C252.812 511.066 233.417 545.235 224.154 571.104C217.671 589.943 216.918 615.815 220.657 640.386C224.398 664.968 232.601 688.03 243.842 701.33C245.127 702.75 246.617 704.545 248.038 706.274C248.259 706.543 248.478 706.81 248.695 707.073C249.885 708.522 250.995 709.874 251.878 710.885L251.89 710.899L251.902 710.913C285.612 752.417 333.265 786.861 401.703 819.563C418.182 827.39 436.564 835.504 451.406 841.661C458.827 844.739 465.355 847.325 470.313 849.14C472.793 850.047 474.87 850.758 476.464 851.241C477.261 851.482 477.927 851.663 478.456 851.783C479.004 851.907 479.345 851.951 479.519 851.951C480.204 851.951 481.245 851.735 482.355 851.34C483.453 850.949 484.513 850.421 485.253 849.865C487.33 848.235 497.418 838.68 507.53 828.872C512.577 823.978 517.609 819.041 521.616 815.035C525.645 811.006 528.585 807.97 529.495 806.843L529.503 806.833L529.624 806.687C530.061 806.162 530.393 805.762 530.629 805.394C530.88 805.001 530.932 804.777 530.926 804.627C530.92 804.494 530.86 804.246 530.475 803.83C530.083 803.405 529.422 802.882 528.366 802.219C524.178 799.588 514.795 795.364 495.732 786.783L494.76 786.345C494.76 786.345 494.76 786.345 494.759 786.345C457.933 769.898 441.803 761.207 420.589 746.766C387.898 724.516 371.698 706.424 356.387 674.019C354.824 670.916 353.702 665.63 352.956 659.391C352.203 653.101 351.819 645.713 351.792 638.327C351.766 630.941 352.097 623.538 352.783 617.219C353.464 610.938 354.506 605.612 355.954 602.459L355.961 602.444L355.968 602.43C357.391 599.573 359.191 595.72 360.951 591.954C362.34 588.981 363.704 586.061 364.838 583.727C369.966 572.215 381.018 555.33 394.766 537.22C408.535 519.085 425.056 499.658 441.158 483.066L441.161 483.064C447.49 476.582 454.245 469.333 472.855 448.696L472.859 448.691C499.458 419.569 511.265 403.567 533.654 367.686L533.654 367.685C543.142 352.507 548.573 341.188 551.394 327.895C554.22 314.575 554.439 299.21 553.382 275.907C550.846 233.512 548.312 221.769 537.903 205.711C534.945 201.509 531.141 195.53 529.413 192.287C527.303 189.114 523.988 184.635 521.546 182.306L521.514 182.275L521.484 182.241C519.377 179.829 513.889 173.726 509.25 168.899L509.238 168.887L509.226 168.874C503.586 162.581 492.972 153.585 480.664 144.372C468.37 135.17 454.447 125.798 442.223 118.752C432.53 113.167 415.641 104.645 399.576 97.0367C383.485 89.4162 368.331 82.7645 362.073 80.8796C359.029 79.9627 353.467 77.5102 349.239 75.4724L349.224 75.4653L349.209 75.4576C345.198 73.3591 342.584 72.2887 340.287 71.9796C338.041 71.6773 336.004 72.0925 333.116 73.2109Z" fill="white" stroke="white" stroke-width="2"/>
<path d="M385.816 26.3264L385.813 26.3277C385.644 26.3935 385.278 26.5999 384.683 27.0048C384.113 27.393 383.394 27.9197 382.545 28.5701C380.85 29.87 378.666 31.6391 376.165 33.7269C371.165 37.9009 364.921 43.3261 358.816 48.7662C352.711 54.2065 346.753 59.6551 342.325 63.8757C340.109 65.9875 338.285 67.7834 337.019 69.1137C336.384 69.781 335.903 70.3167 335.586 70.7092C335.576 70.7216 335.566 70.7339 335.557 70.7458C335.875 70.9614 336.322 71.2376 336.898 71.5721C338.234 72.3483 340.179 73.3914 342.593 74.6326C347.415 77.1127 354.06 80.3599 361.334 83.8012C394.639 99.5016 408.857 107.701 425.58 120.648L425.584 120.651C446.113 136.708 458.266 152.276 472.463 182.491L472.468 182.501C473.885 185.61 474.913 190.325 475.592 195.803C476.274 201.304 476.614 207.66 476.614 214.101C476.614 226.943 475.264 240.29 472.498 247.923L472.495 247.93C460.804 279.425 447.847 301.203 424.075 329.976L424.063 329.99L424.051 330.004C422.197 332.088 420.234 334.495 418.468 336.693C418.047 337.217 417.637 337.73 417.241 338.224C415.994 339.783 414.895 341.156 414.094 342.09C406.986 351.19 397.795 361.559 372.019 387.436C352.913 407.176 343.783 417.737 327.165 438.627C306.842 464.699 287.766 498.91 278.655 524.811C272.278 543.675 271.537 569.581 275.215 594.185C278.894 618.798 286.964 641.889 298.02 655.206C299.283 656.627 300.749 658.425 302.147 660.156C302.364 660.425 302.58 660.692 302.792 660.956C303.963 662.406 305.054 663.76 305.924 664.772L305.935 664.786L305.946 664.8C339.101 706.352 385.967 740.836 453.275 773.576C469.482 781.412 487.561 789.536 502.158 795.7C509.457 798.782 515.877 801.371 520.753 803.187C523.192 804.096 525.233 804.807 526.8 805.29C527.584 805.532 528.239 805.713 528.758 805.833C529.296 805.957 529.629 806 529.796 806C530.464 806 531.484 805.786 532.575 805.39C533.652 805 534.693 804.471 535.419 803.917C537.461 802.285 547.382 792.719 557.328 782.9C562.292 777.999 567.24 773.057 571.181 769.046C575.144 765.012 578.035 761.972 578.93 760.844L578.939 760.834L579.058 760.688C579.487 760.162 579.813 759.762 580.045 759.394C580.293 759.001 580.346 758.773 580.339 758.618C580.333 758.479 580.271 758.229 579.895 757.813C579.509 757.389 578.861 756.866 577.823 756.202C573.705 753.569 564.477 749.34 545.725 740.747L544.773 740.311C544.772 740.31 544.772 740.31 544.771 740.31C508.552 723.843 492.686 715.142 471.82 700.683C439.666 678.404 423.732 660.29 408.675 627.847C407.138 624.743 406.035 619.453 405.301 613.206C404.561 606.911 404.183 599.514 404.157 592.12C404.131 584.726 404.457 577.314 405.131 570.989C405.801 564.701 406.826 559.371 408.249 556.215L408.255 556.201L408.262 556.187C409.662 553.327 411.432 549.469 413.164 545.698C414.53 542.721 415.871 539.798 416.987 537.461C422.029 525.936 432.899 509.032 446.421 490.9C459.963 472.743 476.212 453.293 492.049 436.681L492.051 436.678C498.276 430.189 504.921 422.932 523.223 402.27L523.228 402.265C549.388 373.109 561.001 357.088 583.021 321.164L583.021 321.163C592.353 305.967 597.695 294.632 600.47 281.321C603.25 267.983 603.465 252.598 602.426 229.267C599.931 186.82 597.439 175.06 587.2 158.98C584.291 154.773 580.549 148.787 578.85 145.541C576.775 142.364 573.514 137.88 571.113 135.548L571.081 135.517L571.051 135.482C568.979 133.068 563.582 126.958 559.019 122.125L559.007 122.112L558.996 122.099C553.448 115.8 543.011 106.793 530.905 97.5696C518.815 88.3573 505.121 78.9745 493.099 71.9202C483.567 66.3292 466.957 57.7976 451.156 50.1799C435.33 42.55 420.428 35.8914 414.275 34.0049C411.279 33.0863 405.807 30.6299 401.648 28.5897L401.633 28.5824L401.619 28.5746C397.673 26.4734 395.106 25.4041 392.853 25.0955C390.652 24.7939 388.655 25.2074 385.816 26.3264Z" fill="white" stroke="white" stroke-width="2"/>
</svg>
